<mxfile host="app.diagrams.net" modified="2020-10-16T09:39:50.593Z" agent="5.0 (Windows NT 10.0; Win64; x64) AppleWebKit/537.36 (KHTML, like Gecko) Chrome/85.0.4183.121 Safari/537.36" etag="ZhuA5XvAMIHqP-E3S5ql" version="13.8.0" type="github">
  <diagram id="C5RBs43oDa-KdzZeNtuy" name="Page-1">
    <mxGraphModel dx="1038" dy="531" grid="1" gridSize="10" guides="1" tooltips="1" connect="1" arrows="1" fold="1" page="1" pageScale="1" pageWidth="827" pageHeight="1169" math="0" shadow="0">
      <root>
        <mxCell id="WIyWlLk6GJQsqaUBKTNV-0" />
        <mxCell id="WIyWlLk6GJQsqaUBKTNV-1" parent="WIyWlLk6GJQsqaUBKTNV-0" />
        <mxCell id="Wl_lcxvwGzdpKW48WM75-0" value="User &lt;br&gt;- On Boarding&amp;nbsp; &lt;br&gt;- Login" style="rounded=1;whiteSpace=wrap;html=1;fillColor=#d5e8d4;strokeColor=#82b366;" vertex="1" parent="WIyWlLk6GJQsqaUBKTNV-1">
          <mxGeometry x="50" y="50" width="120" height="60" as="geometry" />
        </mxCell>
        <mxCell id="Wl_lcxvwGzdpKW48WM75-1" value="User Follows" style="rounded=1;whiteSpace=wrap;html=1;fillColor=#d5e8d4;strokeColor=#82b366;" vertex="1" parent="WIyWlLk6GJQsqaUBKTNV-1">
          <mxGeometry x="60" y="200" width="120" height="60" as="geometry" />
        </mxCell>
        <mxCell id="Wl_lcxvwGzdpKW48WM75-2" value="User App / Website&amp;nbsp;" style="rounded=1;whiteSpace=wrap;html=1;fillColor=#d5e8d4;strokeColor=#82b366;" vertex="1" parent="WIyWlLk6GJQsqaUBKTNV-1">
          <mxGeometry x="60" y="370" width="120" height="60" as="geometry" />
        </mxCell>
        <mxCell id="Wl_lcxvwGzdpKW48WM75-3" value="L&lt;br&gt;B" style="rounded=0;whiteSpace=wrap;html=1;direction=south;gradientColor=#b3b3b3;fillColor=#f5f5f5;strokeColor=#666666;" vertex="1" parent="WIyWlLk6GJQsqaUBKTNV-1">
          <mxGeometry x="250" y="50" width="20" height="60" as="geometry" />
        </mxCell>
        <mxCell id="Wl_lcxvwGzdpKW48WM75-4" value="L&lt;br&gt;B" style="rounded=0;whiteSpace=wrap;html=1;direction=south;gradientColor=#b3b3b3;fillColor=#f5f5f5;strokeColor=#666666;" vertex="1" parent="WIyWlLk6GJQsqaUBKTNV-1">
          <mxGeometry x="250" y="200" width="20" height="60" as="geometry" />
        </mxCell>
        <mxCell id="Wl_lcxvwGzdpKW48WM75-5" value="L&lt;br&gt;B" style="rounded=0;whiteSpace=wrap;html=1;direction=south;gradientColor=#b3b3b3;fillColor=#f5f5f5;strokeColor=#666666;" vertex="1" parent="WIyWlLk6GJQsqaUBKTNV-1">
          <mxGeometry x="260" y="370" width="20" height="60" as="geometry" />
        </mxCell>
        <mxCell id="Wl_lcxvwGzdpKW48WM75-9" value="USER SERVICE" style="rounded=0;whiteSpace=wrap;html=1;sketch=0;fillColor=#dae8fc;strokeColor=#6c8ebf;" vertex="1" parent="WIyWlLk6GJQsqaUBKTNV-1">
          <mxGeometry x="350" y="50" width="120" height="60" as="geometry" />
        </mxCell>
        <mxCell id="Wl_lcxvwGzdpKW48WM75-10" value="GRAPH SERVICE" style="rounded=0;whiteSpace=wrap;html=1;sketch=0;fillColor=#dae8fc;strokeColor=#6c8ebf;" vertex="1" parent="WIyWlLk6GJQsqaUBKTNV-1">
          <mxGeometry x="354" y="190" width="120" height="60" as="geometry" />
        </mxCell>
        <mxCell id="Wl_lcxvwGzdpKW48WM75-11" value="ANALYTICS SERVICE" style="rounded=0;whiteSpace=wrap;html=1;sketch=0;fillColor=#dae8fc;strokeColor=#6c8ebf;" vertex="1" parent="WIyWlLk6GJQsqaUBKTNV-1">
          <mxGeometry x="360" y="370" width="120" height="60" as="geometry" />
        </mxCell>
      </root>
    </mxGraphModel>
  </diagram>
</mxfile>
